inDegrees=no
num_controls=7
num_derivatives=13
num_iterations=111
num_multipliers=7
num_parameters=0
num_slacks=7
num_states=26
objective=0.454532
objective_accelerations=0.043933
objective_balance=0.000809
objective_effort=0.036033
objective_height=0.367656
objective_ligament=0.006100
solver_duration=1269.038663
status=Solve_Succeeded
success=true
DataType=double
version=3
OpenSimVersion=4.5
endheader
time	/jointset/ground_pelvis/pelvis_tilt/value	/jointset/ground_pelvis/pelvis_tx/value	/jointset/ground_pelvis/pelvis_ty/value	/jointset/hip_r/hip_flexion_r/value	/jointset/hip_r/hip_adduction_r/value	/jointset/hip_r/hip_rotation_r/value	/jointset/back/lumbar_extension/value	/jointset/patellofemoral_r/patellar_flexion_r/value	/jointset/knee_r/knee_flexion_r/value	/jointset/knee_r/knee_adduction_r/value	/jointset/knee_r/knee_rotation_r/value	/jointset/ankle_r/ankle_angle_r/value	/jointset/subtalar_r/subtalar_angle_r/value	/jointset/ground_pelvis/pelvis_tilt/speed	/jointset/ground_pelvis/pelvis_tx/speed	/jointset/ground_pelvis/pelvis_ty/speed	/jointset/hip_r/hip_flexion_r/speed	/jointset/hip_r/hip_adduction_r/speed	/jointset/hip_r/hip_rotation_r/speed	/jointset/back/lumbar_extension/speed	/jointset/patellofemoral_r/patellar_flexion_r/speed	/jointset/knee_r/knee_flexion_r/speed	/jointset/knee_r/knee_adduction_r/speed	/jointset/knee_r/knee_rotation_r/speed	/jointset/ankle_r/ankle_angle_r/speed	/jointset/subtalar_r/subtalar_angle_r/speed	/forceset/tau_hip_flexion_r	/forceset/tau_hip_adduction_r	/forceset/tau_hip_rotation_r	/forceset/tau_knee_flexion_r	/forceset/tau_ankle_angle_r	/forceset/tau_subtalar_angle_r	/forceset/tau_lumbar_extension	lambda_cid13_p0	lambda_cid14_p0	lambda_cid14_p1	lambda_cid14_p2	lambda_cid14_p3	lambda_cid14_p4	lambda_cid14_p5	/jointset/ground_pelvis/pelvis_tilt/accel	/jointset/ground_pelvis/pelvis_tx/accel	/jointset/ground_pelvis/pelvis_ty/accel	/jointset/hip_r/hip_flexion_r/accel	/jointset/hip_r/hip_adduction_r/accel	/jointset/hip_r/hip_rotation_r/accel	/jointset/back/lumbar_extension/accel	/jointset/patellofemoral_r/patellar_flexion_r/accel	/jointset/knee_r/knee_flexion_r/accel	/jointset/knee_r/knee_adduction_r/accel	/jointset/knee_r/knee_rotation_r/accel	/jointset/ankle_r/ankle_angle_r/accel	/jointset/subtalar_r/subtalar_angle_r/accel	gamma_cid13_p0	gamma_cid14_p0	gamma_cid14_p1	gamma_cid14_p2	gamma_cid14_p3	gamma_cid14_p4	gamma_cid14_p5
0.5	-0.1193369532659491	0.0347049189887273	0.8154916668805118	0.8401883852838462	-0.2514730463328667	-0.05767398377627944	-0.6444934382478282	0.9357554803689105	0.935755480368919	0.06201332111670008	0.1741934972212976	0.2899953926992727	0.09187575276472106	-0.3072488126915849	-0.1915902222846585	-0.4581306017257952	1.726702597072891	-0.04043894641675165	0.4986050417169622	-0.7355408935732565	1.868540187213156	1.868540187213155	-0.08281422438381128	-0.004131826953026496	0.5252788321493348	0.1083818881597231	-0.1865726592353068	-0.002568397914416045	0.03498884934570327	-0.2917429546663337	-0.004152370899341531	-0.009418585970851528	0.2341828469455917	-8.955179819348478	-44.41319023943915	-10.01333793443714	-0.09890276717924758	-2.910123759265477	-645.103295641792	63.71582432332042	0.233748695115001	0.528138712973338	-0.3505568045051634	-1.197810644894318	0.1935948861405289	-0.09735300671606216	1.753249390648767	-1.425207782366787	-1.425207782366787	0.5390908390383448	-0.02336099765807842	-0.5085232005119055	0.1921153805174659	-7.137511026583649e-08	5.340972701785285e-09	1.199858568210744e-06	-1.408050746919038e-07	-1.276588545364459e-07	-1.310261860419699e-07	7.906110659507534e-07
0.51	-0.1223971277418813	0.03281559356051657	0.8108938900070056	0.8573928366007064	-0.2518680882366449	-0.05269490078260138	-0.6517605109748122	0.9543667922682944	0.9543667922682977	0.06121166464387461	0.1741527739718896	0.2952217564849894	0.09296843744025991	-0.3047411441379242	-0.1862589759550256	-0.4613216339560383	1.713954906606936	-0.0385581276772457	0.4971169772456796	-0.7177837234546982	1.853464401156303	1.853464401156308	-0.07757760542031229	-0.003993025495716781	0.5199202323962622	0.1101548376876159	-0.1924501179482642	-0.001789611634392949	0.03570057620531183	-0.2965736003535071	-0.005189042491036838	-0.009115133094208937	0.2397696294317352	-7.998287634816339	-45.02322627126122	-10.10697504116886	0.051511293116555	-2.841308242424785	-649.6429732851037	64.11074103294716	0.2660199674958407	0.5379714678388433	-0.2879318635437511	-1.348159133945287	0.18709377327641	-0.1888406759380819	1.800440077783729	-1.587418691851557	-1.587418691850743	0.5070498848318412	0.03549047832483673	-0.5606184722804801	0.1700520442732286	-6.637745551561963e-08	1.849778920456769e-08	1.318863566468745e-06	-5.717678032446103e-08	-1.479305870587818e-07	-1.248958926276464e-07	8.725227856551805e-07
0.52	-0.1254308767258761	0.03098005137057828	0.806267291724945	0.8744628288356076	-0.2522439682719437	-0.04773355993535688	-0.6588473141495457	0.9728196153722084	0.9728196153722066	0.06046059485264933	0.1741140366892346	0.3003923162512604	0.0940788850721473	-0.3019637143040944	-0.1808335746301696	-0.4638948834366769	1.699810780681014	-0.03660657272091014	0.4950566124302486	-0.6994869831231653	1.836842428119168	1.836842428119178	-0.07269688806377819	-0.003734633602433471	0.5141180282601691	0.1119344794294304	-0.1983275766612217	-0.001010825354369842	0.03641230306492036	-0.3014042460406746	-0.006225714082732159	-0.008811680217566332	0.24535641191787	-7.098669549591858	-45.63232065904381	-10.19427439247985	0.1938635210987592	-2.797664287974022	-654.1747131661244	64.54268211749957	0.2877009511488466	0.5469697120179509	-0.2270002545843191	-1.477097736887626	0.2077421295064597	-0.211813075545724	1.861163433243693	-1.734445178423279	-1.734445178423291	0.4679105176453677	0.0005570895366394414	-0.5972440771158894	0.1934538233018233	-5.853727509763918e-08	2.4746243919294e-08	1.298890778435171e-06	-3.548716600803914e-09	-1.514726505698604e-07	-1.117128031031192e-07	8.691358750016308e-07
0.53	-0.1284355144804262	0.02919917023670592	0.8016180645208869	0.8913845323495153	-0.2526000482300045	-0.04279566822794952	-0.6657485846944506	0.9910986846192947	0.9910986846192966	0.05975652830838214	0.1740784780286882	0.3055027030266232	0.09520706708113676	-0.2989162605397648	-0.1753326098030297	-0.4658452480502719	1.684302407108617	-0.03460826532294762	0.492436489772032	-0.6806938299435521	1.818729128616528	1.818729128616531	-0.06816108360148275	-0.003356064498152206	0.5078900232156812	0.1136867705067202	-0.2041241825799781	-0.0003338320003684666	0.03708553296064931	-0.3062408571384585	-0.007417646515423306	-0.008518116831214803	0.2508292859208802	-6.257194977606899	-46.29688530017612	-10.29022043619527	0.3314714183883655	-2.654034151800932	-658.73249499561	64.97756996467814	0.3204080623508413	0.5531355526274645	-0.1632791237168413	-1.621830021285731	0.1961279968534137	-0.3000021842841833	1.89938564745912	-1.886105354581422	-1.886105354582446	0.439890958473762	0.05970542712866012	-0.6460096507499451	0.1640491109539859	-5.061600016132093e-08	3.003480285649955e-08	1.263270579822544e-06	4.458111752717379e-08	-1.530712964273171e-07	-9.805751597902787e-08	8.570271826031e-07
0.54	-0.1314082496026779	0.02747359388801803	0.7969524887588989	0.908144327556925	-0.2529360945237034	-0.03788655581178928	-0.6724597248301321	1.009189354267675	1.009189354267681	0.05909651491832826	0.1740473447804354	0.3105487235650137	0.09635235847310139	-0.2955831878444019	-0.1697726175932749	-0.4671645950226567	1.667429119381421	-0.03259983984849444	0.4893007541808327	-0.6614609012783951	1.799162508378004	1.799162508378	-0.06388625722110217	-0.00284955114367729	0.5012447808656825	0.1153563560244671	-0.2099207884987346	0.000343161353632795	0.03775876285637832	-0.3110774682362424	-0.008609578948114489	-0.008224553444863459	0.2563021599238904	-5.474160658783814	-46.96095918389621	-10.37990128994028	0.4610219336816605	-2.535484316384343	-663.289730046217	65.44736479175093	0.3448247373555304	0.5587751885409555	-0.1007967263422614	-1.750080567847567	0.2097657448045913	-0.3149356621422801	1.949118530352518	-2.02510932560029	-2.02510932560029	0.4157149012623913	0.02614593957557321	-0.6806915382303037	0.1769127113932473	-4.260500363024597e-08	3.426134944410765e-08	1.210338352484156e-06	8.662780401737845e-08	-1.525197780722561e-07	-8.387979746818487e-08	8.352688593377815e-07
0.55	-0.1343462990844545	0.02580385821599302	0.7922768726791387	0.9247287752132872	-0.2532519439514642	-0.0330112464915014	-0.6789764562261191	1.027077297216725	1.027077297216706	0.05847778029360182	0.174021630562413	0.3155263201779286	0.09751404650151602	-0.2919810632575827	-0.1641693496508675	-0.4678524045908529	1.649243153849296	-0.03056731799547623	0.4856884315350858	-0.641829469761717	1.778199343335629	1.778199343335634	-0.05990652913188171	-0.002291571254939396	0.4942139009401708	0.1169703505571947	-0.2155032339923748	0.0009861229054655089	0.0383943690230638	-0.3160392561325711	-0.009702473565245878	-0.008020394439766562	0.2615539894011266	-4.749376032958165	-47.59869627214887	-10.5086341706739	0.6023213980332881	-2.379947636367453	-667.7981900310327	65.85866909205532	0.3747573320045104	0.5618472274295711	-0.03685585057974409	-1.885438230573784	0.2004849840782557	-0.3953675990926816	1.978541685925181	-2.165923160926117	-2.165923160924913	0.3823796847072346	0.07094234512779279	-0.7234149948064837	0.152206331308219	-3.534322719156912e-08	3.793272020077466e-08	1.158729804995485e-06	1.237628270667549e-07	-1.517202393609555e-07	-7.043447992048125e-08	8.134622584455464e-07
